<svg width="34" height="34" viewBox="0 0 34 34" fill="none" xmlns="http://www.w3.org/2000/svg">
<rect width="34" height="34" rx="17" fill="black"/>
<path d="M10.948 12.504H12.46V19.632H16.072V21H10.948V12.504ZM23.2427 14.496C22.9547 14.192 22.6627 13.976 22.3667 13.848C22.0707 13.72 21.7667 13.656 21.4547 13.656C20.5907 13.656 19.8867 13.948 19.3427 14.532C18.8067 15.108 18.5387 15.828 18.5387 16.692C18.5387 17.612 18.8067 18.368 19.3427 18.96C19.8787 19.552 20.5827 19.848 21.4547 19.848C21.8147 19.848 22.1507 19.768 22.4627 19.608C22.7827 19.44 23.0827 19.176 23.3627 18.816L24.6107 19.704C24.2427 20.216 23.7827 20.596 23.2307 20.844C22.6867 21.092 22.0907 21.216 21.4427 21.216C20.1227 21.216 19.0427 20.812 18.2027 20.004C17.3707 19.188 16.9547 18.116 16.9547 16.788C16.9547 15.436 17.3707 14.348 18.2027 13.524C19.0347 12.7 20.1147 12.288 21.4427 12.288C22.0507 12.288 22.5947 12.392 23.0747 12.6C23.5547 12.808 24.0027 13.152 24.4187 13.632L23.2427 14.496Z" fill="#FFF8E3"/>
</svg>
