<svg width="137" height="24" viewBox="0 0 137 24" fill="none" xmlns="http://www.w3.org/2000/svg">
<path d="M75.8883 16.9275C75.8883 7.03005 59.5433 12.2983 59.5433 6.52103C59.5433 3.93637 61.9385 3.38211 64.8682 3.38211C66.1638 3.37811 67.4311 3.76116 68.5076 4.48215C69.6144 5.18303 70.427 6.26411 70.7925 7.52209H74.3415V0.50053H70.999V2.63839C69.0559 0.968119 66.5875 0.0341957 64.0255 0C59.8035 0 55.6607 1.84376 55.6607 6.62566C55.6607 17.6288 72 11.4047 72 17.281C72 20.4171 68.3578 20.6179 66.3698 20.6179C63.6296 20.6179 60.0523 19.368 58.9976 16.0339H55.6607V23.5023H58.9976V21.2146C60.9431 23.4062 64.0877 24 66.9155 24C71.4995 24 75.8883 22.0629 75.8883 16.9275Z" fill="black"/>
<path d="M27.0428 3.8374V0.50053H19.3736V3.98728H19.2294C17.6373 1.69671 14.3542 0 11.4076 0C4.28703 0 0 5.2287 0 11.9505C0 18.6723 4.28703 24 11.4076 24C14.3542 24 17.6288 22.3598 19.2294 20.0156H19.3736V23.5023H27.0428V20.1683H23.1601V3.8374H27.0428ZM11.8119 20.6292C6.58042 20.6292 4.28703 16.3874 4.28703 11.9505C4.28703 7.66914 6.58042 3.37929 11.8119 3.37929C15.5391 3.37929 19.2747 6.47296 19.2747 11.9505C19.2747 17.4281 15.5391 20.6292 11.8119 20.6292Z" fill="black"/>
<path d="M44.055 20.6292C44.0491 19.784 43.7103 18.9753 43.1122 18.3782C42.514 17.7811 41.7047 17.4438 40.8595 17.4394C40.022 17.4498 39.2225 17.791 38.6356 18.3886C38.0486 18.9861 37.7217 19.7916 37.7263 20.6292C37.7229 21.0417 37.8016 21.4508 37.9578 21.8326C38.1141 22.2145 38.3447 22.5614 38.6363 22.8533C38.9279 23.1451 39.2746 23.3761 39.6563 23.5326C40.038 23.6892 40.447 23.7683 40.8595 23.7653C41.2762 23.7728 41.6903 23.6972 42.0775 23.543C42.4647 23.3888 42.8173 23.1591 43.1147 22.8671C43.4122 22.5752 43.6485 22.227 43.81 21.8427C43.9714 21.4585 44.0547 21.0459 44.055 20.6292Z" fill="black"/>
<path d="M122.52 3.78367V0C118.589 0 115.3 1.34606 113.652 5.03075H113.558V0.506186H105.688V3.84305H109.523V20.1739H105.688V23.508H118.088V20.1683H113.799V12.2983C113.799 6.47296 115.453 4.28137 122.52 3.78367Z" fill="black"/>
<path d="M86.6907 20.6293C86.6873 21.0421 86.7661 21.4514 86.9225 21.8334C87.0789 22.2155 87.3098 22.5625 87.6017 22.8544C87.8936 23.1463 88.2406 23.3772 88.6227 23.5336C89.0047 23.69 89.414 23.7688 89.8268 23.7654C92.2305 23.7654 94.0488 21.2203 92.3407 18.4717C89.6882 16.1613 86.6907 18.0673 86.6907 20.6293Z" fill="black"/>
<path d="M133.082 23.7542C135.485 23.7542 137.301 21.2091 135.598 18.4605C132.932 16.1614 129.943 18.0674 129.943 20.6181C129.939 21.0311 130.018 21.4407 130.175 21.8229C130.331 22.2051 130.563 22.5523 130.855 22.8442C131.147 23.1362 131.494 23.367 131.877 23.5232C132.259 23.6794 132.669 23.758 133.082 23.7542Z" fill="black"/>
</svg>
