<svg width="44" height="48" viewBox="0 0 44 48" fill="none" xmlns="http://www.w3.org/2000/svg">
<path d="M21.8858 39.9985C22.3012 40.0109 22.7147 39.9381 23.101 39.7846C23.4872 39.6311 23.8379 39.4002 24.1315 39.1061C24.4251 38.812 24.6554 38.4609 24.8081 38.0744C24.9609 37.6879 25.033 37.2742 25.0199 36.8589H18.7462C18.733 37.2747 18.8052 37.6889 18.9584 38.0757C19.1115 38.4626 19.3423 38.814 19.6365 39.1082C19.9307 39.4024 20.2821 39.6332 20.6689 39.7863C21.0558 39.9394 21.4699 40.0116 21.8858 39.9985Z" fill="black"/>
<path d="M35.4592 33.8252C34.3997 32.7601 31.9237 30.6911 31.9237 26.6704V19.9395C31.9266 17.4925 31.0355 15.1288 29.4181 13.2927C27.8007 11.4565 25.5683 10.2744 23.1405 9.96854V9.25473C23.1405 8.92196 23.0083 8.60281 22.773 8.3675C22.5377 8.13219 22.2186 8 21.8858 8C21.553 8 21.2339 8.13219 20.9986 8.3675C20.7633 8.60281 20.6311 8.92196 20.6311 9.25473V9.96854C18.2033 10.2744 15.9709 11.4565 14.3535 13.2927C12.7361 15.1288 11.8451 17.4925 11.8479 19.9395V26.6704C11.8479 30.6019 9.50578 32.6318 8.31239 33.8252C8.16355 33.9706 8.06188 34.1574 8.02061 34.3614C7.97934 34.5653 8.00036 34.777 8.08095 34.9688C8.16153 35.1607 8.29796 35.3238 8.4725 35.4371C8.64703 35.5504 8.85161 35.6086 9.05965 35.6041H34.712C34.92 35.6086 35.1246 35.5504 35.2991 35.4371C35.4737 35.3238 35.6101 35.1607 35.6907 34.9688C35.7713 34.777 35.7923 34.5653 35.751 34.3614C35.7097 34.1574 35.6081 33.9706 35.4592 33.8252ZM9.52251 34.3494C11.5301 32.3418 13.1027 30.2116 13.1027 26.6704V19.9395C13.1027 17.61 14.028 15.376 15.6752 13.7289C17.3224 12.0817 19.5564 11.1564 21.8858 11.1564C24.2152 11.1564 26.4493 12.0817 28.0964 13.7289C29.7436 15.376 30.6689 17.61 30.6689 19.9395V26.6704C30.6689 30.0164 32.0519 32.1522 34.2491 34.3494H9.52251Z" fill="black"/>
</svg>
