<svg width="24" height="24" viewBox="0 0 24 24" fill="none" xmlns="http://www.w3.org/2000/svg">
<g clip-path="url(#clip0_40_532)">
<path d="M23.9019 22.0634C23.8891 21.914 23.7184 20.557 22.0328 18.85C20.616 17.4161 18.9346 16.9083 17.5861 16.4986C15.8877 15.9823 15.3287 15.739 15.2433 14.8045C15.2134 14.4887 15.2689 14.0662 15.3201 13.7931C15.973 12.9225 16.1096 12.1373 16.2376 11.3777C16.2504 11.3052 16.2632 11.2326 16.276 11.1601C17.1551 10.5157 17.4026 9.07333 17.3301 8.1473C17.2959 7.71629 17.1636 7.38343 16.9716 7.14019C17.0996 6.35498 17.2447 5.03635 17.0057 4.05911C16.515 2.03208 14.7056 0.666504 12.5164 0.666504C10.6259 0.666504 7.56194 1.74616 6.99864 4.05911C6.75966 5.03635 6.90475 6.35071 7.03278 7.14019C6.84074 7.38343 6.70845 7.71629 6.67431 8.1473C6.60177 9.07333 6.85355 10.5243 7.7369 11.1644C7.74117 11.1772 7.74117 11.1942 7.74544 11.207C7.93321 12.1245 8.12524 13.0676 8.68427 13.8059C8.73121 14.0748 8.78669 14.493 8.75682 14.8045C8.67147 15.739 8.12097 15.978 6.45241 16.4773C5.09537 16.8827 3.40973 17.3863 1.96308 18.85C0.277443 20.5527 0.106747 21.914 0.0939445 22.0634L6.10352e-05 23.1132H24.0001L23.9019 22.0634ZM1.05412 22.153C1.05412 22.153 1.15653 21.0349 2.65013 19.5285C5.4709 16.6779 9.43534 17.9197 9.71699 14.8941C9.77673 14.2326 9.58043 13.3792 9.58043 13.3792C8.96165 12.7092 8.8251 11.6253 8.58185 10.5115C7.79665 10.3536 7.57901 8.9197 7.63022 8.22411C7.67716 7.62667 7.98868 7.584 8.06976 7.584C8.08256 7.584 8.0911 7.584 8.0911 7.584C8.0911 7.584 7.63022 5.51003 7.92894 4.28528C8.34714 2.57831 10.8564 1.62667 12.5122 1.62667C14.1679 1.62667 15.6572 2.57831 16.0712 4.28528C16.3699 5.51003 15.909 7.584 15.909 7.584C15.909 7.584 15.9176 7.584 15.9304 7.584C16.0114 7.584 16.323 7.62241 16.3699 8.22411C16.4254 8.9197 16.2077 10.3536 15.4183 10.5115C15.175 11.6295 15.2262 12.4062 14.4197 13.3792C14.4197 13.3792 14.2234 14.2284 14.2831 14.8941C14.5605 17.9026 18.5719 16.7291 21.3457 19.5285C22.8393 21.0392 22.9417 22.153 22.9417 22.153H1.05412Z" fill="black"/>
</g>
<defs>
<clipPath id="clip0_40_532">
<rect width="24" height="24" fill="white"/>
</clipPath>
</defs>
</svg>
