<svg width="24" height="24" viewBox="0 0 24 24" fill="none" xmlns="http://www.w3.org/2000/svg">
<g clip-path="url(#clip0_42_541)">
<path d="M15.8255 2.86631V1.92513C15.8255 0.855615 14.9699 0 13.9003 0H10.0501C8.98056 0 8.12494 0.855615 8.12494 1.92513V2.86631H3.3335V3.80749H4.31745L5.64366 22.2032C5.72922 23.1872 6.54205 24 7.56879 24H16.4244C17.4084 24 18.264 23.2299 18.3495 22.2032L19.6757 3.80749H20.6597V2.86631H15.8255ZM9.1089 1.88235C9.1089 1.36898 9.53671 0.941176 10.0929 0.941176H13.9431C14.4565 0.941176 14.9271 1.36898 14.9271 1.88235V2.82353H9.1089V1.88235ZM17.3656 22.1176C17.3228 22.631 16.895 23.016 16.4244 23.016H7.52601C7.01264 23.016 6.58483 22.631 6.58483 22.1176L5.25863 3.80749H18.649L17.3656 22.1176Z" fill="black"/>
<path d="M15.8684 7.48663H15.3978L14.8416 19.3797H15.3122L15.8684 7.48663Z" fill="black"/>
<path d="M15.8684 7.48663L15.3122 19.3797H15.7829L16.339 7.48663H15.8684Z" fill="black"/>
<path d="M8.08236 7.48663L8.59573 19.3797H9.06632L8.55295 7.48663H8.08236Z" fill="black"/>
<path d="M8.08236 7.48663L7.61165 7.48664L8.12502 19.3797L8.59573 19.3797L8.08236 7.48663Z" fill="black"/>
<path d="M11.9754 7.48663H11.5048V19.3797H11.9754V7.48663Z" fill="black"/>
<path d="M12.446 7.48663H11.9754V19.3797H12.446V7.48663Z" fill="black"/>
</g>
<defs>
<clipPath id="clip0_42_541">
<rect width="24" height="24" fill="white"/>
</clipPath>
</defs>
</svg>
